<svg width="3957.832" height="2036.661" xmlns="http://www.w3.org/2000/svg">
 <metadata/>
 <defs>
  <radialGradient gradientUnits="userSpaceOnUse" gradientTransform="matrix(176 0 0 -176 -181452.2812 719258.5625)" r="25.2971" cy="4082.8464" cx="1034.8246" id="SVGID_1_">
   <stop stop-color="#FFFFFF" offset="0"/>
   <stop stop-color="#FFFFFF" stop-opacity="0" offset="1"/>
  </radialGradient>
 </defs>
 <g>
  <title>background</title>
  <rect fill="none" id="canvas_background" height="2038.661" width="3959.832" y="-1" x="-1"/>
 </g>
 <g>
  <title>Layer 1</title>
  <g transform="rotate(-134 1995.9141845703125,1026.3201904296873) " id="svg_1">
   <g id="svg_2">
    <path id="svg_3" d="m1300.467991,1493.400042c-763.948,-1010.703 -1548.267,-242.681 -1343.529,463.716c514.98,1126.319 1845.516,1621.908 2971.834,1106.928c388.227,-177.507 717.722,-462.139 949.765,-820.448c-590.532,553.099 -1662.86,460.662 -2578.07,-750.196z" fill="#292b2c"/>
    <path id="svg_4" d="m1983.437991,797.443042c-1050.683,-1593.595 -2228.436,-744.34 -2228.436,229.185c-0.425,322.418 69.079,641.094 203.719,934.053c-139.802,-659.796 618.289,-1168.585 1324.177,-221.545c1024.964,1375.106 2030.828,1133.189 2593.604,507.516c180.738,-277.449 297.472,-591.64 341.739,-919.793l0,4.329c-241.663,749.688 -1308.135,871.665 -2234.803,-533.745z" fill="#2f504c"/>
    <path id="svg_5" d="m2703.585991,84.425042c-780.245,-1287.252 -1769.558,-1171.387 -2439.286,-481.542c-330.134,400.934 -510.227,904.384 -509.298,1423.745c70.029,-942.202 1209.584,-1597.924 2240.914,0c916.738,1422.217 2058.84,1051.702 2221.306,308.635l0,-7.13c14.218,-101.209 20.265,-203.399 18.08,-305.579l0,-101.86c-396.998,284.188 -919.03,174.434 -1531.716,-836.269z" fill="#357069"/>
    <path id="svg_6" d="m2708.933991,313.610042c714.546,1148.723 1330.543,854.858 1527.896,609.121c-7.978,-171.708 -35.749,-341.922 -82.761,-507.261c-333.082,6.875 -410.75,-48.638 -738.483,-547.751c-500.896,-767.513 -1131.917,-1285.725 -2234.548,-929.216c-357.252,140.122 -672.802,369.158 -916.738,665.399c757.582,-697.23 1687.052,-508.025 2444.634,709.708z" fill="#3b9488"/>
    <path id="svg_7" d="m3366.692991,-33.476958c326.715,499.877 525.596,525.342 787.376,448.947c-339.422,-1192.217 -1581.06,-1883.545 -2773.276,-1544.123c-67.6,19.245 -134.258,41.656 -199.755,67.157c984.983,-310.673 1683.486,260.251 2185.655,1028.019z" fill="#41b3a3"/>
   </g>
   <g id="svg_8">
    <path id="svg_9" d="m1995.915991,-1188.820958c1232.656,0 2233.911,995.526 2240.914,2228.181l0,-12.732c0,-1237.621 -1003.293,-2240.914 -2240.914,-2240.914s-2240.914,1003.293 -2240.914,2240.914l0,12.732c7.002,-1232.655 1008.258,-2228.181 2240.914,-2228.181z" fill-opacity="0.2" fill="#FFFFFF"/>
    <path id="svg_10" d="m1995.915991,3242.077042c-1232.656,0 -2233.911,-995.526 -2240.914,-2228.182l0,12.732c0,1237.623 1003.291,2240.914 2240.914,2240.914s2240.914,-1003.291 2240.914,-2240.913l0,-12.732c-7.003,1232.655 -1008.259,2228.181 -2240.914,2228.181z" fill-opacity="0.2" fill="#1A237E"/>
   </g>
   <circle id="svg_11" r="2240.914063" cy="1026.628042" cx="1995.915991" fill-opacity="0.1" fill="url(#SVGID_1_)"/>
  </g>
 </g>
</svg>