<svg width="189" height="193" xmlns="http://www.w3.org/2000/svg" stroke="null" style="vector-effect: non-scaling-stroke;" preserveAspectRatio="xMidYMid meet">
 <metadata>Created by potrace 1.15, written by Peter Selinger 2001-2017</metadata>

 <g stroke="null">
  <title>background</title>
  <rect stroke="null" fill="none" id="canvas_background" height="195" width="191" y="-1" x="-1"/>
 </g>
 <g stroke="null">
  <title>Layer 1</title>
  <g stroke="null" transform="rotate(-180 85.79500579833984,68.5446548461914) " id="svg_20">
   <g stroke="null" transform="matrix(0.034514368011586125,0,0,-0.028562012706619736,-11168.487797515,11506.750899182565) " id="svg_9">
    <g stroke="null" id="svg_10">
     <path stroke="null" id="svg_11" d="m325110.068898,400838.759785c-763.948,-1010.703 -1548.267,-242.681 -1343.529,463.716c514.98,1126.319 1845.516,1621.908 2971.834,1106.928c388.227,-177.507 717.722,-462.139 949.765,-820.448c-590.532,553.099 -1662.86,460.662 -2578.07,-750.196z" fill="#292b2c"/>
     <path stroke="null" id="svg_12" d="m325793.038898,400142.802785c-1050.683,-1593.595 -2228.436,-744.34 -2228.436,229.185c-0.425,322.418 69.079,641.094 203.719,934.053c-139.802,-659.796 618.289,-1168.585 1324.177,-221.545c1024.964,1375.106 2030.828,1133.189 2593.604,507.516c180.738,-277.449 297.472,-591.64 341.739,-919.793l0,4.329c-241.663,749.688 -1308.135,871.665 -2234.803,-533.745z" fill="#2f504c"/>
     <path stroke="null" id="svg_13" d="m326513.186898,399429.784785c-780.245,-1287.252 -1769.558,-1171.387 -2439.286,-481.542c-330.134,400.934 -510.227,904.384 -509.298,1423.745c70.029,-942.202 1209.584,-1597.924 2240.914,0c916.738,1422.217 2058.84,1051.702 2221.306,308.635l0,-7.13c14.218,-101.209 20.265,-203.399 18.08,-305.579l0,-101.86c-396.998,284.188 -919.03,174.434 -1531.716,-836.269z" fill="#357069"/>
     <path stroke="null" id="svg_14" d="m326518.534898,399658.969785c714.546,1148.723 1330.543,854.858 1527.896,609.121c-7.978,-171.708 -35.749,-341.922 -82.761,-507.261c-333.082,6.875 -410.75,-48.638 -738.483,-547.751c-500.896,-767.513 -1131.917,-1285.725 -2234.548,-929.216c-357.252,140.122 -672.802,369.158 -916.738,665.399c757.582,-697.23 1687.052,-508.025 2444.634,709.708z" fill="#3b9488"/>
     <path stroke="null" id="svg_15" d="m327176.293898,399311.882785c326.715,499.877 525.596,525.342 787.376,448.947c-339.422,-1192.217 -1581.06,-1883.545 -2773.276,-1544.123c-67.6,19.245 -134.258,41.656 -199.755,67.157c984.983,-310.673 1683.486,260.251 2185.655,1028.019z" fill="#41b3a3"/>
    </g>
    <g stroke="null" id="svg_16">
     <path stroke="null" id="svg_17" d="m325805.516898,398156.538785c1232.656,0 2233.911,995.526 2240.914,2228.181l0,-12.732c0,-1237.621 -1003.293,-2240.914 -2240.914,-2240.914s-2240.914,1003.293 -2240.914,2240.914l0,12.732c7.002,-1232.655 1008.258,-2228.181 2240.914,-2228.181z" fill-opacity="0.2" fill="#FFFFFF"/>
     <path stroke="null" id="svg_18" d="m325805.516898,402587.436785c-1232.656,0 -2233.911,-995.526 -2240.914,-2228.182l0,12.732c0,1237.623 1003.291,2240.914 2240.914,2240.914s2240.914,-1003.291 2240.914,-2240.913l0,-12.732c-7.003,1232.655 -1008.259,2228.181 -2240.914,2228.181z" fill-opacity="0.2" fill="#1A237E"/>
    </g>
    <radialGradient gradientUnits="userSpaceOnUse" gradientTransform="matrix(176 0 0 -176 -181452.2812 719258.5625)" r="25.2971" cy="4082.8464" cx="1034.8246" id="svg_7">
     <stop stop-color="#FFFFFF" offset="0"/>
     <stop stop-color="#FFFFFF" stop-opacity="0" offset="1"/>
    </radialGradient>
    <circle stroke="null" id="svg_19" r="2240.921875" cy="400567.16954" cx="326345.021388" fill-opacity="0.1" fill="url(#svg_7)"/>
   </g>
  </g>
  <g id="svg_1" fill="#000000" transform="translate(0,1280) scale(0.10000000149011612,-0.10000000149011612) ">
   <path stroke="null" fill="#4c3117" id="svg_2" d="m1044.271324,12514.283495c-2.120185,-8.051722 -8.215719,-18.311174 -21.201855,-35.583416c-15.901391,-21.03837 -23.32204,-35.06395 -28.092458,-52.855659c-3.047767,-11.298384 -3.577813,-15.454111 -3.577813,-34.284752c-0.132512,-22.856501 1.325116,-31.817288 7.950696,-52.595926c3.842836,-11.947716 12.721113,-31.167956 19.479204,-42.076741c2.650232,-4.285594 4.770417,-9.350387 4.770417,-11.558117c0,-2.077864 1.457628,-6.493324 3.31279,-9.480253c1.855162,-3.246662 3.31279,-7.791989 3.31279,-10.519185c0,-2.59733 1.722651,-9.999719 3.975348,-16.363177c10.865951,-31.687422 13.516183,-81.296418 8.745765,-164.540834c-0.662558,-11.168518 -3.31279,-22.337035 -5.300464,-21.817569c-0.530046,0.129866 -4.505394,5.194659 -9.010788,11.038651c-4.505394,5.973858 -16.563949,21.03837 -26.767342,33.505553c-29.417574,35.713283 -29.94762,36.492482 -38.560874,61.686579c-12.45609,35.973016 -11.926043,43.894871 5.565487,76.880958c6.095533,11.687983 10.600927,21.168237 9.93837,21.168237c-4.240371,0 -22.791994,-16.103444 -32.332829,-28.310893c-5.167952,-6.493324 -5.697999,-7.921855 -8.613254,-24.674632c-1.722651,-9.739986 -3.577813,-24.674632 -3.975348,-32.986087l-0.79507,-15.194379l7.420649,-14.804779c4.240371,-8.441321 17.226507,-29.219959 30.74269,-48.959664c24.514645,-35.973016 32.200317,-49.608997 35.645619,-63.764443c3.31279,-13.376248 2.782743,-21.168237 -1.855162,-29.349825c-2.252697,-3.895994 -3.975348,-8.701054 -3.975348,-11.298384c0,-3.636262 -0.79507,-4.934926 -5.300464,-7.791989c-4.637906,-2.986929 -5.167952,-3.766128 -4.505394,-7.142657c0.79507,-3.506395 -0.79507,-5.584259 -16.563949,-22.596768c-9.540835,-10.389319 -18.684135,-19.739705 -20.406785,-20.778637c-1.855162,-1.168798 -4.505394,-5.324526 -6.228045,-9.869853c-1.722651,-4.675193 -4.637906,-9.350387 -6.890603,-11.168518c-2.915255,-2.337597 -4.372883,-5.584259 -6.493068,-13.246381c-1.325116,-5.584259 -4.505394,-13.895714 -6.758091,-18.570907c-2.915255,-5.843992 -4.240371,-10.389319 -4.240371,-14.934646c-0.132512,-9.869853 -2.915255,-9.090654 -11.130974,3.116796c-6.360556,9.480253 -13.383671,22.986368 -36.440688,70.5175c-4.770417,9.869853 -12.588601,24.285032 -17.359019,32.077021c-16.033903,25.973297 -20.539297,39.219678 -21.59939,63.764443c-1.060093,26.103163 4.240371,44.024738 16.961484,56.102321c8.34823,7.921855 9.540835,11.298384 4.902929,14.285313c-5.565487,3.636262 -8.613254,3.895994 -9.408323,1.168798c-0.265023,-1.298665 -3.180278,-4.285594 -6.360556,-6.493324c-11.130974,-7.40239 -13.251159,-9.61012 -19.611716,-18.83064c-9.010788,-13.116515 -10.468416,-16.363177 -12.721113,-27.661561c-1.060093,-5.584259 -2.650232,-11.687983 -3.445301,-13.635981l-1.457628,-3.636262l-7.553161,6.753057c-4.107859,3.636262 -11.528509,9.739986 -16.696461,13.506114c-11.263485,8.181588 -55.522358,36.362615 -69.171052,43.765005c-12.323578,6.753057 -17.226507,11.428251 -21.466878,20.389038c-6.890603,14.674913 -5.167952,34.544484 5.167952,60.647648c3.842836,9.999719 5.035441,11.558117 17.624042,23.505833c34.850549,33.115953 53.402172,47.531133 80.434537,62.595645c31.007713,17.272242 37.898316,25.973297 36.838223,46.622067c-0.530046,11.168518 -3.445301,19.609839 -8.083207,23.375967c-2.252697,1.818131 -2.385209,1.298665 -5.035441,-16.103444c-1.722651,-11.81785 -4.770417,-18.570907 -10.070881,-22.726635c-4.240371,-3.116796 -31.405248,-18.570907 -56.052404,-31.687422c-31.802782,-16.882643 -35.645619,-20.129305 -62.677984,-52.466059c-25.839761,-30.64849 -31.537759,-40.388476 -33.392922,-56.102321c-0.397535,-3.895994 -1.722651,-8.311455 -2.782743,-9.739986c-1.855162,-2.467463 -1.987674,-2.337597 -6.228045,2.59733c-27.032365,32.077021 -30.74269,38.180746 -37.235758,63.634577c-7.023114,27.531694 -8.745765,38.440479 -8.745765,54.414056c0,16.103444 1.987674,26.622629 12.986136,68.30977c7.420649,28.181027 10.203393,47.011667 8.878277,58.959383c-1.192604,11.298384 -5.300464,27.921294 -9.1433,37.011948c-3.180278,7.791989 -8.480742,16.363177 -9.540835,15.324245c-0.265023,-0.259733 0.530046,-5.064793 1.722651,-10.778918c1.325116,-6.753057 2.120185,-17.012509 2.120185,-30.388757c0.132512,-23.765566 -1.722651,-32.336754 -15.503856,-69.998034c-4.637906,-12.597049 -9.408323,-25.84343 -10.600927,-29.609558c-2.120185,-6.363458 -2.385209,-6.623191 -5.963022,-5.584259c-6.890603,1.947997 -11.395997,4.934926 -26.63483,17.921575c-21.334367,18.311174 -26.502319,25.453831 -28.489993,39.86901c-1.457628,10.778918 -4.637906,20.778637 -7.950696,24.804498l-3.047767,3.766128l-0.927581,-12.986648c-1.855162,-24.674632 0.927581,-39.479411 10.335904,-53.375125c2.252697,-3.506395 12.721113,-14.41518 23.057017,-24.414899c24.647156,-23.6357 27.164877,-28.181027 30.212643,-55.972454c1.192604,-11.298384 2.915255,-17.402109 10.335904,-37.011948c3.577813,-9.61012 7.950696,-22.986368 9.673346,-29.609558c2.120185,-8.051722 4.505394,-13.765847 7.023114,-16.882643c1.987674,-2.727196 7.288138,-9.999719 11.528509,-16.493043c12.058555,-17.791708 13.648694,-19.739705 23.984598,-27.271961c6.62558,-4.934926 11.66102,-10.129586 16.166414,-16.62291c3.577813,-5.064793 8.480742,-11.168518 10.865951,-13.376248c7.553161,-6.882924 49.559336,-33.895152 59.89524,-38.570345c7.155626,-3.246662 10.600927,-5.584259 12.323578,-8.701054c1.590139,-2.59733 5.300464,-5.584259 9.805858,-7.791989c17.226507,-8.571188 28.622504,-19.350106 49.956871,-47.401266c18.2866,-24.285032 29.285062,-43.115672 34.05548,-58.69965c0.927581,-2.727196 0.79507,-2.727196 -5.167952,-0.909065c-3.445301,0.909065 -12.853625,2.727196 -20.936832,3.895994c-16.298926,2.337597 -56.58245,2.077864 -104.286624,-0.779199c-45.583988,-2.857063 -74.073981,0 -105.876763,10.389319c-20.274274,6.623191 -28.489993,10.129586 -38.958408,17.272242c-4.770417,3.116796 -13.516183,7.662123 -19.479204,10.129586c-18.551623,7.532256 -30.875201,21.42797 -37.368269,42.076741c-2.385209,7.532256 -2.915255,12.337316 -3.047767,27.921294l0,18.83064l5.697999,9.350387c4.505394,7.272523 6.095533,11.558117 7.553161,20.129305c1.060093,5.843992 3.710325,15.713844 5.963022,21.687703c5.167952,13.765847 5.697999,23.765566 1.457628,30.388757c-7.420649,11.687983 -10.733439,8.960787 -10.733439,-8.830921c0,-12.856782 -0.662558,-14.285313 -13.648694,-32.206888c-2.782743,-3.895994 -5.300464,-9.090654 -5.83051,-12.077583c-0.397535,-2.727196 -3.710325,-11.298384 -7.155626,-18.83064c-3.577813,-7.532256 -7.553161,-18.051441 -8.878277,-23.2461l-2.385209,-9.480253l-3.710325,4.285594c-6.095533,7.142657 -9.805858,15.713844 -15.901391,37.271681c-6.758091,23.2461 -10.335904,32.466621 -18.551623,47.531133c-3.180278,5.843992 -7.023114,14.804779 -8.613254,19.999438c-2.252697,7.272523 -4.240371,10.778918 -9.275812,16.23331c-14.443764,15.454111 -27.562411,19.999438 -35.77813,12.467182c-3.710325,-3.246662 -3.445301,-4.545327 1.060093,-5.584259c5.300464,-1.038932 14.17874,-8.960787 19.214181,-16.752776c7.420649,-11.558117 12.721113,-26.492763 20.671809,-57.790585c9.408323,-36.622348 11.395997,-42.726073 18.551623,-54.543923c3.710325,-6.103725 5.83051,-11.428251 6.493068,-16.103444c0.79507,-6.233591 2.385209,-8.960787 12.721113,-22.466902c14.17874,-18.441041 35.910642,-40.388476 49.691848,-49.738863c12.058555,-8.441321 33.127898,-18.700774 45.7165,-22.466902c5.963022,-1.818131 10.203393,-3.895994 11.793532,-5.973858c1.325116,-1.688264 5.300464,-4.285594 8.613254,-5.714125c3.31279,-1.298665 7.553161,-3.895994 9.408323,-5.454392c2.385209,-2.20773 6.095533,-3.506395 12.986136,-4.41546c9.805858,-1.428531 16.696461,-4.41546 15.901391,-7.01279c-0.265023,-0.779199 -16.828972,-10.389319 -36.838223,-21.42797c-20.009251,-11.038651 -49.02929,-27.531694 -64.400634,-36.622348c-15.76888,-9.480253 -30.080132,-17.012509 -32.995387,-17.531975c-2.650232,-0.519466 -12.323578,-3.246662 -21.334367,-5.973858c-31.140224,-9.480253 -45.7165,-9.869853 -72.748865,-2.077864c-8.745765,2.59733 -17.093996,4.675193 -18.551623,4.675193c-1.457628,0 -8.878277,5.324526 -16.563949,11.81785c-18.949158,16.103444 -28.887527,23.2461 -41.078594,29.609558c-11.395997,5.973858 -14.311252,6.363458 -18.551623,2.986929l-2.915255,-2.337597l3.577813,-3.376529c1.987674,-1.947997 6.890603,-5.324526 10.998462,-7.662123c5.035441,-2.727196 13.383671,-9.999719 25.442226,-22.207169c20.406785,-20.778637 29.682597,-28.310893 41.476129,-33.375686c17.756554,-7.921855 42.271198,-10.778918 67.183378,-8.051722c11.926043,1.428531 48.764266,7.921855 56.052404,9.999719c1.987674,0.649332 1.722651,-0.519466 -1.722651,-7.40239c-2.385209,-4.41546 -7.553161,-17.272242 -11.528509,-28.310893c-11.130974,-31.167956 -17.226507,-42.46634 -28.489993,-52.725792c-5.167952,-4.675193 -13.913717,-11.428251 -19.214181,-14.934646c-9.805858,-6.363458 -10.070881,-6.493324 -20.274274,-6.493324c-7.420649,0 -10.733439,-0.519466 -11.926043,-1.947997c-1.325116,-1.558398 -0.79507,-2.337597 2.915255,-4.545327c10.203393,-6.103725 24.779668,-6.103725 36.970735,0c20.80432,10.389319 35.910642,22.077302 44.523895,34.804217c6.360556,9.350387 10.600927,18.181308 22.394459,45.453269c10.865951,25.453831 17.624042,37.141814 27.827435,48.310332c14.576275,15.973577 22.659482,21.298103 63.473053,41.297542c56.847474,27.791427 73.1464,33.115953 113.297412,37.271681c21.334367,2.337597 55.654869,2.467463 72.218818,0.519466c21.996925,-2.59733 42.668733,-9.999719 51.016963,-18.311174c5.167952,-4.934926 26.369807,-34.804217 33.525433,-47.141533c11.130974,-19.090373 18.949158,-41.687141 22.129436,-64.154043c1.060093,-7.40239 0.927581,-12.856782 -0.662558,-24.025299c-1.060093,-7.921855 -3.445301,-27.791427 -5.300464,-44.284471c-4.770417,-41.037809 -8.083207,-60.777514 -11.528509,-67.270838c-2.385209,-4.675193 -2.915255,-8.830921 -3.842836,-28.181027c-0.530046,-12.467182 -1.457628,-26.23303 -1.855162,-30.518624c-0.397535,-4.285594 -3.047767,-31.557555 -5.963022,-60.647648c-2.915255,-29.090092 -6.228045,-65.063108 -7.420649,-79.867887c-2.782743,-36.622348 -2.782743,-92.724669 0,-126.360088c3.842836,-47.011667 5.035441,-53.764724 16.033903,-88.049476c2.51772,-8.181588 5.565487,-20.129305 6.62558,-26.622629c2.120185,-13.116515 2.51772,-40.778076 0.79507,-54.28419c-1.060093,-8.311455 -1.722651,-9.480253 -13.118648,-24.155166c-17.093996,-22.207169 -20.141762,-24.544765 -44.92143,-34.154885c-23.984598,-9.22052 -34.585526,-12.077583 -51.414498,-14.155447c-28.489993,-3.376529 -61.220356,-15.843711 -88.385233,-33.765286c-16.166414,-10.649052 -24.11711,-17.921575 -46.776592,-42.726073c-25.574738,-28.05116 -40.151013,-38.05088 -62.147937,-42.46634c-7.950696,-1.558398 -10.733439,-1.688264 -12.191067,-0.519466c-2.385209,1.818131 -3.842836,0.779199 -2.650232,-2.077864c1.457628,-3.766128 14.708787,-8.701054 25.839761,-9.350387c12.191067,-0.909065 29.285062,2.077864 38.428362,6.753057c11.263485,5.584259 29.94762,21.03837 45.981523,37.791147c34.718037,36.752215 42.801245,42.206607 63.473053,43.635138l5.300464,0.389599l0.397535,-35.45355l0.265023,-35.45355l-4.107859,-2.20773c-8.215719,-4.545327 -8.745765,-5.194659 -5.83051,-7.40239c5.963022,-4.545327 12.45609,-4.025861 19.214181,1.428531c6.758091,5.714125 9.673346,12.726915 9.540835,23.2461c-0.132512,7.662123 0.530046,10.908785 4.505394,20.518904c3.577813,8.830921 4.637906,12.856782 4.372883,18.441041c-0.265023,6.623191 0,7.532256 4.240371,11.81785c5.963022,6.103725 7.685672,6.882924 30.345155,14.155447c37.103246,11.947716 92.228069,35.973016 102.29895,44.67407c2.650232,2.20773 8.215719,8.830921 12.45609,14.41518c4.107859,5.714125 9.010788,11.298384 10.600927,12.337316l3.180278,1.947997l0,-9.22052c0,-5.064793 -0.927581,-18.700774 -2.120185,-30.258891c-5.565487,-54.154323 1.060093,-75.971893 35.115572,-116.230502c6.228045,-7.40239 15.238833,-17.921575 19.876739,-23.375967c11.793532,-13.765847 18.154088,-23.375967 24.249622,-36.102882c5.167952,-10.649052 5.167952,-11.038651 3.577813,-17.402109c-1.192604,-4.545327 -1.325116,-6.753057 -0.265023,-7.791989c2.385209,-2.337597 6.62558,-0.129866 9.93837,5.064793c2.650232,4.155727 3.047767,6.493324 2.915255,17.142376c0,21.817569 -8.34823,39.349544 -32.332829,68.050037c-5.035441,6.103725 -9.275812,11.298384 -9.275812,11.428251c0,0.259733 5.565487,0.259733 12.191067,0c9.93837,-0.389599 16.033903,0.389599 31.272736,3.506395c12.853625,2.727196 22.526971,4.025861 30.345155,4.025861c11.263485,0 11.395997,0 15.76888,-4.545327c5.963022,-6.233591 7.685672,-5.973858 6.890603,1.298665c-0.530046,3.895994 -2.385209,8.181588 -5.697999,12.856782c-3.975348,5.714125 -5.697999,7.142657 -9.673346,7.791989c-8.745765,1.428531 -19.479204,0.779199 -34.187991,-1.818131c-7.950696,-1.428531 -18.154088,-2.59733 -22.659482,-2.59733c-8.083207,0 -8.613254,0.259733 -19.744227,7.921855c-13.383671,9.350387 -16.298926,14.155447 -16.431438,26.752496c0,9.61012 1.325116,16.103444 8.083207,39.86901c2.915255,9.999719 5.565487,22.077302 6.095533,27.012228c0.397535,4.80506 1.192604,8.830921 1.590139,8.830921c0.397535,0 7.023114,-6.233591 14.708787,-14.02558c8.083207,-8.181588 18.2866,-16.882643 24.514645,-20.908504c5.83051,-3.766128 27.297388,-14.934646 47.704174,-24.934365c20.406785,-9.999719 40.946082,-20.129305 45.451477,-22.596768c4.902929,-2.59733 10.335904,-4.545327 12.853625,-4.545327c7.553161,0 34.320503,-7.272523 47.43915,-12.986648c16.033903,-6.882924 54.8598,-27.791427 59.497705,-32.077021c1.855162,-1.818131 6.228045,-8.311455 9.540835,-14.545046c7.818184,-14.41518 11.926043,-19.479972 14.046229,-17.402109c0.927581,0.779199 2.385209,8.051722 3.31279,16.23331c1.457628,13.765847 1.457628,14.934646 -1.060093,20.259171c-1.457628,3.246662 -6.890603,9.739986 -12.588601,14.934646c-5.565487,5.194659 -12.853625,12.077583 -16.431438,15.583978c-3.445301,3.376529 -7.420649,6.103725 -8.878277,6.103725c-1.457628,0 -8.480742,3.895994 -15.503856,8.571188c-7.420649,4.934926 -16.696461,9.869853 -21.731901,11.558117c-10.733439,3.506395 -14.311252,5.324526 -18.154088,8.830921c-4.372883,3.766128 -3.842836,4.80506 2.650232,4.80506c8.745765,0 20.539297,3.246662 42.40371,11.558117c11.130974,4.155727 25.707249,8.960787 32.46534,10.649052c11.528509,2.727196 13.251159,2.857063 25.839761,1.428531c7.420649,-0.909065 15.76888,-1.947997 18.551623,-2.337597c4.505394,-0.779199 4.902929,-0.649332 4.902929,2.20773c0,6.103725 -5.432975,11.558117 -15.901391,16.103444c-5.167952,2.20773 -8.745765,2.59733 -27.827435,2.467463l-21.864413,0l-28.489993,-7.40239c-43.596314,-11.168518 -62.41296,-12.207449 -80.434537,-4.675193c-3.445301,1.428531 -8.878277,2.986929 -12.191067,3.376529c-3.842836,0.519466 -8.878277,2.59733 -13.781206,5.714125c-4.372883,2.857063 -10.733439,5.584259 -15.238833,6.493324c-9.1433,1.947997 -13.516183,5.714125 -27.562411,23.505833c-33.525433,42.855939 -74.736539,129.217151 -88.517744,185.579204c-5.035441,20.389038 -9.673346,46.492201 -11.66102,64.803375c-2.252697,21.298103 -2.252697,97.010263 0,122.074494c10.070881,109.996911 22.129436,184.410406 41.476129,255.187639c8.745765,31.817288 15.636368,51.68686 19.081669,54.543923c1.722651,1.428531 4.637906,5.584259 6.360556,9.090654c3.445301,6.623191 9.93837,13.506114 18.154088,18.960507c2.51772,1.688264 7.950696,6.103725 12.058555,9.869853c5.565487,5.194659 11.130974,8.571188 21.996925,13.376248c36.838223,16.103444 62.147937,20.389038 105.081694,18.051441c28.224969,-1.688264 41.873664,-3.895994 50.884452,-8.181588c8.215719,-4.025861 38.693385,-29.090092 46.246546,-37.921013c2.915255,-3.506395 8.083207,-9.22052 11.528509,-12.856782c6.890603,-7.272523 8.878277,-11.298384 14.443764,-29.479692c4.637906,-14.674913 7.818184,-21.298103 12.721113,-25.713564c1.987674,-1.818131 6.758091,-7.142657 10.865951,-11.947716c8.878277,-10.649052 28.224969,-26.882362 34.718037,-29.090092c7.685672,-2.727196 24.514645,-2.337597 30.610178,0.779199c5.565487,2.857063 9.275812,8.181588 9.275812,13.635981c0,2.986929 -0.397535,3.246662 -3.577813,2.467463c-2.120185,-0.519466 -5.035441,-1.428531 -6.758091,-1.947997c-7.818184,-2.857063 -12.45609,-1.428531 -24.382133,7.272523c-21.59939,15.973577 -32.995387,32.336754 -35.77813,51.68686c-1.987674,13.635981 -1.457628,14.545046 6.493068,11.428251c33.922968,-12.856782 99.913741,-11.687983 132.776617,2.467463c12.191067,5.194659 21.466878,7.01279 31.935294,6.103725c13.383671,-1.168798 21.59939,-4.285594 34.718037,-12.986648c11.263485,-7.532256 12.45609,-8.830921 17.889065,-18.441041c7.420649,-13.246381 10.733439,-16.23331 18.2866,-16.23331c11.793532,0 12.721113,2.727196 4.240371,12.337316c-3.180278,3.636262 -8.878277,12.597049 -12.45609,20.129305c-3.710325,7.532256 -7.818184,14.545046 -9.1433,15.843711c-1.457628,1.168798 -9.93837,5.973858 -19.081669,10.778918c-9.1433,4.80506 -17.359019,9.350387 -18.154088,9.999719c-2.252697,1.818131 6.228045,11.947716 11.926043,14.155447c2.385209,0.909065 10.203393,4.41546 17.49153,7.791989c33.525433,15.454111 54.594776,21.03837 80.169514,21.168237c20.141762,0.129866 22.526971,-0.649332 27.827435,-8.830921c3.445301,-5.454392 4.902929,-5.843992 6.095533,-1.428531c2.252697,8.960787 -4.505394,19.479972 -16.033903,25.194098c-20.80432,10.129586 -48.499243,8.701054 -87.457652,-4.675193c-9.408323,-3.246662 -21.864413,-7.272523 -27.4299,-8.960787c-12.853625,-3.766128 -18.551623,-6.623191 -31.272736,-15.583978c-14.841298,-10.519185 -21.334367,-13.376248 -33.657945,-14.934646c-6.62558,-0.779199 -13.251159,-2.59733 -17.359019,-4.675193c-15.636368,-7.662123 -61.617891,-10.778918 -82.157188,-5.584259c-12.191067,3.116796 -39.753478,14.804779 -52.872126,22.207169c-5.167952,2.986929 -12.721113,8.830921 -16.961484,12.986648c-5.167952,5.064793 -8.745765,7.662123 -10.865951,7.662123c-3.710325,0 -7.155626,2.20773 -16.298926,10.129586c-8.083207,7.142657 -16.828972,11.168518 -41.741152,19.090373c-20.671809,6.493324 -31.802782,10.778918 -31.802782,12.207449c0,0.519466 1.855162,1.947997 3.975348,3.246662c6.62558,3.766128 21.201855,18.700774 33.790456,34.544484c27.694923,34.934084 38.428362,45.193536 55.654869,53.634858c14.311252,6.882924 25.309714,9.090654 56.847474,11.298384c16.563949,1.168798 20.274274,1.818131 23.454552,4.155727c3.180278,2.337597 6.360556,2.986929 19.479204,3.636262c15.238833,0.779199 15.636368,0.779199 23.719575,-2.986929c9.010788,-4.155727 24.249622,-5.973858 37.765804,-4.285594c6.360556,0.779199 8.083207,1.688264 15.371345,8.311455c7.288138,6.753057 11.263485,13.376248 9.010788,15.454111c-0.397535,0.389599 -1.855162,-0.129866 -3.047767,-1.168798c-1.325116,-1.038932 -5.300464,-3.116796 -9.010788,-4.41546c-8.480742,-3.116796 -28.092458,-3.246662 -35.248084,-0.129866c-5.300464,2.337597 -13.118648,8.311455 -13.118648,9.999719c0,0.649332 4.902929,3.636262 10.998462,6.753057c8.613254,4.41546 13.781206,8.311455 24.91218,19.220239c7.685672,7.532256 17.624042,18.051441 21.996925,23.505833c6.890603,8.441321 8.878277,10.129586 13.251159,10.908785c9.275812,1.688264 10.998462,5.584259 4.107859,9.739986c-5.83051,3.506395 -11.263485,3.246662 -19.081669,-0.779199c-7.685672,-4.025861 -12.986136,-8.701054 -21.996925,-19.739705c-3.975348,-4.80506 -10.600927,-10.778918 -16.166414,-14.41518c-5.300464,-3.506395 -13.383671,-9.480253 -18.021577,-13.376248c-10.468416,-8.571188 -15.636368,-11.558117 -27.4299,-15.713844c-17.889065,-6.363458 -47.969197,-10.778918 -89.975372,-13.376248l-14.841298,-0.909065l4.505394,16.23331c7.288138,26.622629 14.576275,45.972735 24.382133,65.322841c10.865951,21.298103 14.97381,26.752496 24.382133,31.427689c5.83051,2.986929 8.745765,3.636262 21.334367,4.025861c9.93837,0.389599 18.551623,-0.129866 27.164877,-1.688264c23.057017,-4.025861 21.864413,-4.025861 27.694923,0.519466c2.782743,2.20773 5.83051,5.714125 6.493068,7.662123l1.325116,3.636262l-10.203393,0.129866c-7.950696,0 -13.118648,0.909065 -24.647156,4.675193c-17.756554,5.714125 -25.839761,7.01279 -34.453014,5.973858c-3.577813,-0.389599 -6.890603,-0.649332 -7.155626,-0.389599c-0.265023,0.259733 0.79507,2.337597 2.385209,4.80506c4.240371,6.753057 19.479204,20.389038 32.200317,28.570626c26.63483,17.402109 42.138687,20.908504 103.226531,22.986368c49.294313,1.688264 50.354405,1.947997 54.06473,11.81785c1.987674,5.584259 0.397535,6.363458 -9.1433,4.41546c-13.781206,-2.986929 -23.32204,-2.467463 -36.838223,1.947997c-11.130974,3.636262 -13.648694,3.895994 -30.74269,3.895994c-20.936832,0 -31.802782,-1.818131 -51.54701,-8.311455c-29.020039,-9.739986 -48.896778,-21.42797 -69.436075,-40.907942c-15.238833,-14.545046 -21.069343,-22.726635 -34.05548,-48.050599c-5.167952,-10.259452 -12.721113,-23.895433 -16.828972,-30.258891c-9.673346,-15.324245 -17.889065,-32.85622 -29.285062,-62.076179c-11.926043,-30.778356 -18.2866,-44.933803 -25.972272,-57.660718c-9.408323,-15.583978 -15.106322,-21.557836 -25.442226,-26.752496c-6.890603,-3.376529 -12.191067,-7.662123 -21.731901,-17.272242c-6.890603,-7.01279 -14.311252,-13.895714 -16.563949,-15.194379c-6.758091,-4.155727 -25.839761,-11.168518 -40.416036,-14.804779c-22.924506,-5.973858 -45.053942,-13.376248 -56.317427,-19.090373c-5.83051,-2.857063 -14.046229,-6.103725 -18.2866,-7.142657c-9.805858,-2.337597 -14.97381,-4.934926 -28.622504,-14.674913c-6.095533,-4.285594 -13.118648,-8.571188 -15.503856,-9.480253c-2.782743,-0.909065 -5.035441,-2.857063 -5.963022,-5.194659c-1.855162,-4.41546 -8.215719,-11.428251 -10.335904,-11.428251c-3.842836,0 0.132512,21.557836 6.360556,33.765286c5.167952,10.259452 10.070881,17.142376 24.647156,35.06395c23.852087,29.479692 32.46534,44.67407 44.656407,78.569222c3.445301,9.999719 8.215719,21.687703 10.335904,25.973297c14.311252,28.310893 22.791994,107.139849 17.359019,160.904573c-1.987674,20.518904 -0.397535,34.934084 5.432975,51.427127c9.540835,26.492763 22.924506,44.414337 39.488455,52.595926c9.408323,4.675193 16.696461,5.324526 27.562411,2.59733c8.480742,-2.20773 9.408323,-2.20773 15.76888,-0.129866c7.553161,2.467463 16.696461,9.61012 19.744227,15.324245c2.120185,3.895994 2.120185,4.025861 -1.060093,3.246662c-9.010788,-2.20773 -17.624042,-2.337597 -32.200317,-0.259733c-8.745765,1.168798 -16.166414,2.337597 -16.431438,2.727196c-1.192604,1.168798 11.263485,12.467182 19.744227,18.051441c12.191067,7.921855 22.659482,12.726915 40.018501,18.570907c14.311252,4.934926 15.238833,5.064793 18.949158,3.116796c8.878277,-4.41546 24.249622,-6.882924 28.357481,-4.285594c4.372883,2.727196 -2.915255,13.765847 -12.323578,18.570907c-4.107859,2.20773 -8.480742,2.986929 -18.154088,3.376529c-16.431438,0.649332 -28.755016,-2.467463 -47.571662,-12.337316c-7.685672,-4.025861 -18.419111,-9.61012 -23.852087,-12.337316c-6.493068,-3.246662 -11.528509,-6.753057 -14.576275,-10.519185c-2.51772,-2.986929 -11.66102,-11.81785 -20.274274,-19.609839c-12.323578,-11.168518 -16.431438,-15.843711 -20.141762,-22.726635c-2.51772,-4.80506 -7.288138,-11.687983 -10.600927,-15.324245c-3.31279,-3.636262 -5.963022,-7.142657 -5.963022,-7.791989c0,-2.986929 -3.047767,-10.908785 -4.770417,-12.726915c-3.577813,-3.506395 -5.300464,-2.20773 -7.023114,5.584259c-2.385209,10.519185 -9.408323,26.362896 -22.261948,49.998596c-17.889065,32.466621 -24.249622,49.47913 -24.249622,64.673509c0,3.895994 -0.662558,9.350387 -1.457628,12.207449c-1.987674,7.272523 -1.987674,6.363458 2.650232,33.765286c6.890603,39.86901 9.805858,48.180465 20.671809,57.400986c3.31279,2.986929 5.963022,6.363458 5.963022,7.532256c0,1.298665 1.722651,5.324526 3.710325,8.960787c5.697999,9.869853 6.095533,12.986648 2.51772,17.142376l-3.180278,3.506395l-0.927581,-3.636262z"/>
  </g>
  <metadata/>
 </g>
</svg>