<?xml version="1.0" encoding="UTF-8"?>
<svg viewBox="30 55 440 550" xmlns="http://www.w3.org/2000/svg">
 <g fill="#41b3a3">
  <path d="m9.1794 74.58c21.115 0 42.23-16 63.346-16h8.7e-4c21.115 4.92e-4 42.23 16 63.345 16h8.7e-4c21.115-5.04e-4 42.23-16 63.345-16h8.85e-4c21.115 4.92e-4 42.23 16 63.345 16h8.85e-4c21.115-5.04e-4 42.23-16 63.345-16h8.85e-4c21.115 4.92e-4 42.23 16 63.345 16h9.46e-4c21.115-5.04e-4 42.23-16 63.345-16h8.85e-4c21.115 4.92e-4 42.23 16 63.345 16v23.167h-7.93e-4c-21.115-4.27e-4 -42.23-16-63.345-16h-8.85e-4c-21.115 4.27e-4 -42.23 16-63.345 16h-8.85e-4c-21.115-4.27e-4 -42.23-16-63.345-16h-9.46e-4c-21.115 4.27e-4 -42.23 16-63.345 16h-8.85e-4c-21.115-4.27e-4 -42.23-16-63.345-16h-8.7e-4c-21.115 4.27e-4 -42.23 16-63.345 16h-8.85e-4c-21.115-4.27e-4 -42.23-16-63.345-16h-8.93e-4c-21.115 4.27e-4 -42.23 16-63.345 16v-23.167" opacity="1"/>
  <path d="m9.1794 115.77c21.115 0 42.23-16 63.346-16h7.78e-4c21.115 4.27e-4 42.23 16 63.345 16h7.78e-4c21.115-4.35e-4 42.23-16 63.345-16h7.93e-4c21.115 4.27e-4 42.23 16 63.345 16h7.93e-4c21.115-4.35e-4 42.23-16 63.345-16h7.93e-4c21.115 4.27e-4 42.23 16 63.345 16h7.93e-4c21.115-4.35e-4 42.23-16 63.345-16h7.93e-4c21.115 4.27e-4 42.23 16 63.345 16v23.167h-7.93e-4c-21.115-3.66e-4 -42.23-16-63.345-16h-7.93e-4c-21.115 4.27e-4 -42.23 16-63.345 16h-7.93e-4c-21.115-3.66e-4 -42.23-16-63.345-16h-7.93e-4c-21.115 4.27e-4 -42.23 16-63.345 16h-7.93e-4c-21.115-3.66e-4 -42.23-16-63.345-16h-7.78e-4c-21.115 4.27e-4 -42.23 16-63.345 16h-7.93e-4c-21.115-3.66e-4 -42.23-16-63.345-16h-8.01e-4c-21.115 4.27e-4 -42.23 16-63.345 16v-23.167" opacity=".5"/>
  <path d="m9.1794 156.96c21.115 0 42.23-16 63.346-16h6.87e-4c21.115 3.66e-4 42.23 16 63.345 16h6.87e-4c21.115-3.66e-4 42.23-16 63.345-16h7.02e-4c21.115 3.66e-4 42.23 16 63.345 16h7.02e-4c21.115-3.66e-4 42.23-16 63.345-16h7.02e-4c21.115 3.66e-4 42.23 16 63.345 16h7.02e-4c21.115-3.66e-4 42.23-16 63.345-16h7.02e-4c21.115 3.66e-4 42.23 16 63.345 16v23.166h-6.71e-4c-21.115-3.66e-4 -42.23-16-63.345-16h-7.02e-4c-21.115 3.66e-4 -42.23 16-63.345 16h-6.71e-4c-21.115-3.66e-4 -42.23-16-63.345-16h-7.02e-4c-21.115 3.66e-4 -42.23 16-63.345 16h-7.02e-4c-21.115-3.66e-4 -42.23-16-63.345-16h-7.02e-4c-21.115 3.66e-4 -42.23 16-63.345 16h-7.02e-4c-21.115-3.66e-4 -42.23-16-63.345-16h-7.17e-4c-21.115 3.66e-4 -42.23 16-63.345 16v-23.166" opacity=".2"/>
  </g>
</svg>
